Patient4_TMGait_0pt2_01_right_06_EMG.mot
version=1
nRows=30
nColumns=33
inDegrees=no
endheader
time	1LAddLong	2LGlutMax	3LGlutMed	4LIliopsoas	5LSemiMemb	6LBicFemLong	7LRecFem	8LVastMed	9LVastLat	10LGasMed	11LTibAnt	12lTibPost	13LPeroneusLong	14LSol	15LExtDigLong	16LFlexDigLong	17RAddLong	18RGlutMax	19RGlutMed	20RIliopsoas	21RSemiMemb	22RBicFemLong	23RRecFem	24RVastMed	25RVastLat	26RGasMed	27RTibAnt	28RTibPost	29RPeroneusLong	30RSol	31RExtDigLong	32RFlexDigLong
11.45	-0.006714	-0.044098	0.063324	-0.006104	0.02594	-0.24139	0.21606	-0.003357	0.097198	-0.030823	0.039825	-0.02533	0.050659	-0.089874	-0.42694	-0.00351	0.020294	-0.053864	0.48004	0.004272	0.054474	0.016632	0.070343	0.078278	0.049438	0.002899	-0.009918	-0.000763	-0.16464	-0.041504	-0.004425	-0.006561
11.451	0.001526	-0.027161	-0.005798	-0.014191	-0.024109	-0.27847	0.1767	0.007629	0.12451	-0.059204	-0.16571	-0.027924	0.18463	0.021515	-0.36026	0.005798	0.009308	-0.036469	0.66635	-0.089722	0.053864	-0.031891	0.056458	0.11002	0.047302	0	-0.022278	0.006714	-0.15182	-0.033722	-0.002136	0.001831
11.452	0.002899	-0.000763	-0.019684	0.005188	-0.00351	-0.26337	0.059052	0.007324	0.22736	-0.004883	-0.12131	-0.025482	0.18814	0.05722	-0.22125	0.000305	-0.006409	-0.026398	0.58838	0	0.061646	-0.039368	0.072784	0.11246	0.038147	0.003052	-0.009155	-0.001526	-0.065613	-0.001678	-0.002594	-0.006714
11.453	0.002136	-0.001678	-0.07309	0.003357	0.058594	-0.15152	-0.007019	0.003204	0.28381	0.020447	-0.049286	-0.032043	-0.028534	0.05188	0.18265	0.007629	0.002289	-0.005951	0.53635	0.1091	0.06485	-0.065613	0.066223	0.083008	0.022888	0.001678	0.011749	-0.005646	0.038757	-0.002441	-0.003815	0.003357
11.454	0.01709	-0.00885	0.034027	-0.001526	0.076294	-0.04837	-0.0354	-0.018005	0.35584	0.027313	-0.023956	-0.019684	-0.32333	0.067902	-0.028381	0.00885	0.037384	-0.016174	0.77362	0.1088	0.036469	-0.10071	0.087433	0.014801	-0.001831	-0.000305	0.002441	-0.005951	0.21973	-0.010376	-0.006104	-0.007782
11.455	0.017395	0.026093	0.1326	0.001678	0.054932	0.02594	-0.032806	-0.01236	0.44632	0.00061	-0.038147	-0.020294	0.13992	0.13947	0.2243	0.00412	0.041046	0.020905	0.61951	0.12695	0.001526	-0.12299	0.10666	-0.027924	-0.020752	-0.009766	-0.000458	0.000763	0.18188	-0.018616	-0.000916	0.000763
11.456	0.019684	0.03006	0.10895	-0.004272	0.047913	0.16388	0.000763	-0.018616	0.40344	-0.032654	0.079651	-0.024719	-0.044708	0.033112	-0.30502	0.007629	0.044098	0.052185	0.91644	0.14542	-0.018768	-0.16235	0.11932	-0.063019	-0.050049	-0.007324	0.013885	-0.002136	0.041656	0.007782	-0.002289	0.001526
11.457	0.021515	-0.009155	0.11704	-0.00946	0.034485	0.2327	0.052795	-0.028229	0.19134	0.005188	0.1561	-0.028076	-0.041351	-0.009155	-0.21866	-0.001526	0.026245	-0.015106	0.74722	0.11902	-0.01297	-0.16342	0.12909	-0.072327	-0.049438	-0.00946	0.014191	0.003052	-0.024567	0.028534	-0.007477	-0.009918
11.458	0.032196	0.020752	0.021057	-0.009766	0.033417	0.24368	0.22827	-0.0177	-0.3537	-0.015869	0.16159	-0.016785	-0.16083	0.021515	-0.072632	-0.006714	0.03891	-0.019684	0.88318	-0.10696	-0.006561	-0.1831	0.082092	-0.044708	-0.052185	-0.010529	0.005798	-0.000458	0.039673	0.032349	0.002899	-0.014801
11.459	0.009308	0.040436	0.032349	0.00824	0.013733	0.19043	0.26459	-0.010529	-0.51987	-0.027924	-0.13641	-0.021973	0.043182	0.022888	-0.085754	-0.002747	0.052795	-0.019226	0.65582	-0.2153	-0.005493	-0.23529	0.13626	-0.050049	-0.061798	-0.006866	0.002441	0.002441	0.053406	0.050812	-0.00351	-0.007324
11.46	0.007629	0.037537	0.005035	0.011902	0.002289	0.048828	0.19333	-0.003815	-0.42648	-0.010529	-0.097198	-0.023804	0.44632	-0.042725	-0.11261	-0.006866	0.064392	-0.036163	0.81543	-0.32211	-0.022736	-0.23926	0.1358	-0.04837	-0.058289	-0.005493	0.000458	-0.002289	0.036774	0.055847	-0.001831	-0.004272
11.461	-0.001526	0.026093	0.021667	0.005188	0.003052	0.080261	0.16037	0.004425	-0.31006	0.024719	-0.072479	-0.016632	0.042877	-0.14526	-0.16449	0.003052	0.037842	-0.011444	0.85892	-0.3009	-0.023346	-0.16495	0.09552	-0.09552	-0.04715	0.003052	-0.005188	0.001678	-0.003815	0.048676	-0.001831	-0.009003
11.462	0.016785	0.014038	0.013733	0.003204	0.013275	0.18127	0.093536	0.002289	-0.23804	-0.035095	-0.094757	-0.016785	-0.30762	0.13153	-0.051727	0.003357	0.028076	-0.035706	0.65277	-0.17166	-0.044098	-0.055237	0.092621	-0.032196	-0.023651	0	0.005341	0.002899	-0.11887	0.011139	-0.001984	-0.009613
11.463	0.016785	-0.019073	-0.006256	0.004272	0.036163	0.12054	-0.007935	0.007172	-0.093384	-0.009155	0.005341	-0.014191	-0.075378	0.047302	-0.012207	0.000305	0.006256	-0.053101	0.72937	-0.07019	-0.012207	-0.049438	0.042114	-0.012207	0.003052	-0.000763	0.01236	0.002136	-0.18494	0.015259	-0.003662	-0.016022
11.464	0.010071	-0.058136	-0.033417	-0.001526	0.024567	-0.017395	-0.021057	0.003357	-0.062866	0.058136	-0.004425	-0.018005	0.57037	-0.048218	0.13855	0.00351	-0.010986	-0.093079	0.92453	0.015411	0.015106	-0.044556	0.1059	0.000458	-0.005646	-0.006256	0.044708	0.009308	-0.13977	-0.025024	-0.000305	-0.015717
11.465	0.004578	-0.081024	-0.047607	-0.007782	0.020142	-0.11078	-0.034027	0.020447	-0.035706	0.069275	-0.051422	-0.010529	0.57083	-0.063324	0.07431	0.011444	-0.028839	-0.079498	0.80475	0.15533	0.032959	-0.019226	0.080261	0.044098	0.011597	-0.005951	0.030518	0.00061	-0.10452	-0.033569	-0.002899	-0.004425
11.466	-0.004272	-0.080414	-0.090637	0.009308	-0.002289	-0.052948	-0.018005	0.010681	0.044556	0.066071	-0.041656	-0.011444	0.46204	-0.13794	0.026703	0.000153	-0.010681	-0.063782	0.74356	0.19302	0.053406	-0.054321	0.10452	0.035706	0.023193	-0.005035	-0.000763	0.005646	-0.03418	-0.076141	-0.002136	0.001221
11.467	-0.005035	-0.037689	-0.10117	0.020447	-0.008545	-0.066528	0.01358	0.004578	0.06134	0.082397	-0.016785	-0.012054	0.1091	-0.094604	0.074158	-0.000458	0.028992	-0.12009	0.784	0.12283	0.063477	-0.038605	0.10727	-0.025177	0.011139	-0.008545	-0.006561	0.003357	0.13947	-0.13199	-0.003052	-0.010681
11.468	0.001831	-0.04715	-0.10178	0.010681	-0.007324	-0.086975	0.07843	0.002747	0.040741	0.099945	0.014191	-0.009613	-0.50171	-0.052795	0.081024	-0.002136	-0.001526	-0.087433	0.58807	0.077057	0.051575	-0.04425	0.11536	-0.034637	0.006714	-0.01709	0.24002	0.00473	0.020294	-0.1619	-0.000305	-0.002747
11.469	-0.000916	-0.034943	0.067291	0.01236	0.015869	-0.003052	0.15884	-0.002441	0.071564	0.089417	0.031128	-0.009613	-0.41672	-0.11948	0.002441	-0.007935	0.013733	-0.054016	1.0344	-0.004578	0.035553	-0.065155	0.12848	-0.000916	0.01236	-0.012817	0.59418	0.001526	-0.16968	-0.20508	-0.003052	0.001526
11.47	-0.000458	-0.043793	0.041046	-0.003052	0.001678	-0.009003	0.1152	0.000153	-0.014648	-0.035095	0.011292	-0.008698	-0.17471	-0.055237	0.041962	-0.025482	0.09491	-0.047302	1.0291	0.025787	0.024261	-0.099182	0.11322	-0.006104	0.006561	-0.004883	0.89203	0.007324	-0.18921	-0.28442	-0.00351	-0.007172
11.471	-0.009003	-0.020294	-0.014343	0.013123	-0.070038	0.039063	0.062408	0.004272	-0.032349	-0.10956	0.016785	-0.009918	-0.16647	0.024109	0.094299	-0.008392	0.1033	-0.012054	0.98419	0.103	-0.006409	-0.10071	0.11292	-0.006409	-0.00061	0.008698	1.0092	0.005035	-0.032043	-0.39536	0.004425	-0.00885
11.472	-0.023804	-0.028687	-0.002289	-0.002136	-0.088959	0.065918	0.021667	0.012054	0.002747	-0.050964	0.012054	-0.006409	-0.17197	-0.10193	0.04837	0.004578	0.035553	-0.098419	0.71091	0.14145	-0.030518	-0.099487	0.11643	-0.034332	-0.00412	0.01297	0.59998	0.002747	0.074463	-0.42526	-0.002747	0.001984
11.473	-0.023041	0.000153	0.053253	0.012512	-0.10635	0.017395	0.022736	0.004272	0.06897	-0.042572	0.003967	-0.016632	0.015564	-0.20187	0.010529	0.014648	0.005188	-0.12512	0.70267	0.1152	-0.044098	-0.13367	0.11551	-0.024567	-0.012054	0.010834	-0.73364	0.003052	0.25543	-0.34683	-0.003204	-0.004425
11.474	-0.016022	-0.004272	0.010834	0.010376	0.018158	0.025024	0.083313	0.007477	0.034485	-0.046997	-0.003967	-0.017548	0.028229	-0.29282	-0.006714	0.009003	-0.069427	-0.1358	0.61951	0.02533	-0.054321	-0.098267	0.088348	-0.032654	0.001068	0.018311	-0.83069	0.007477	0.30258	-0.30212	-0.002441	-0.009918
11.475	-0.027618	0.021362	-0.027161	0.012512	0.079803	0.078278	0.14145	0.006409	0.003204	-0.019226	-0.004272	-0.011749	-0.080872	-0.20218	0.002747	0.00946	-0.10422	-0.15335	0.457	-0.001373	-0.030212	-0.081482	0.040283	-0.00061	-0.004425	0.019531	-0.62164	0.003815	0.28397	-0.2713	-0.00412	-0.003357
11.476	-0.023651	0.026398	0.053253	-0.00061	0.056458	0.13641	0.13794	0.010071	-0.004272	0.004578	0.012207	-0.011444	-0.13458	-0.082245	0.050049	0.021515	-0.12756	-0.11765	0.44846	-0.11871	-0.003052	-0.072937	0.067596	0.039825	-0.016327	0.008392	-0.89066	0.002289	0.14801	-0.14313	-0.007782	-0.009766
11.477	-0.023346	0.002441	0.019531	0.003357	0.088196	-0.11795	0.13748	0.00412	-0.008545	-0.010376	-0.009918	0.005798	0.36362	0.014954	0.052948	0.022583	-0.12558	-0.17242	0.55862	-0.13168	-0.001678	-0.080719	0.071716	0.033264	0.022736	0.00061	-0.6398	-0.004272	0.06424	0.006714	-0.002136	-0.010834
11.478	-0.014648	-0.02655	-0.066223	0.029602	0.042419	-0.071869	0.12497	0.006561	-0.041351	0.009308	-0.006256	-0.014343	0.74219	-0.046082	-0.067444	0.006561	-0.13672	-0.18219	0.44678	-0.1471	0.018005	-0.046387	0.057068	0.020294	0.014343	-0.006104	-0.42526	-0.000305	0.096283	0.20676	-0.002899	-0.021057
11.479	0.005341	0.003204	0.086212	0.007782	0.028839	-0.006866	0.081177	0.017242	-0.022583	0.031586	0.028076	-0.014191	0.2475	-0.095673	-0.048065	0.015717	-0.099487	-0.13947	0.59845	-0.12405	0.025024	0.005798	0.072174	0.027924	0.027771	-0.006561	-0.40375	-0.00473	0.168	0.33661	-0.001831	-0.022888
